<?xml version="1.0" standalone="no"?>
<!DOCTYPE svg PUBLIC "-//W3C//DTD SVG 1.1//EN" "http://www.w3.org/Graphics/SVG/1.1/DTD/svg11.dtd" >
<!--
2013-9-30: Created.
-->
<svg>
<metadata>
Created by iconfont
</metadata>
<defs>

<font id="icon-yike" horiz-adv-x="1024" >
  <font-face
    font-family="icon-yike"
    font-weight="500"
    font-stretch="normal"
    units-per-em="1024"
    ascent="896"
    descent="-128"
  />
    <missing-glyph />
    
    <glyph glyph-name="more" unicode="&#59012;" d="M224 288c-52.928 0-96 43.072-96 96s43.072 96 96 96c52.928 0 96-43.072 96-96S276.928 288 224 288zM512 288c-52.928 0-96 43.072-96 96s43.072 96 96 96c52.928 0 96-43.072 96-96S564.928 288 512 288zM800 288c-52.928 0-96 43.072-96 96s43.072 96 96 96c52.928 0 96-43.072 96-96S852.928 288 800 288z"  horiz-adv-x="1024" />

    
    <glyph glyph-name="post" unicode="&#59225;" d="M800-64 224-64c-52.928 0-96 43.072-96 96L128 672c0 52.928 43.072 96 96 96l448 0c17.696 0 32-14.336 32-32s-14.304-32-32-32L224 704C206.368 704 192 689.632 192 672l0-640c0-17.664 14.368-32 32-32l576 0c17.664 0 32 14.336 32 32L832 544c0 17.664 14.304 32 32 32s32-14.336 32-32l0-512C896-20.928 852.928-64 800-64zM511.68 353.28c-8.256 0-16.512 3.168-22.752 9.504-12.416 12.576-12.32 32.832 0.256 45.248L907.488 821.76c12.608 12.448 32.832 12.288 45.248-0.256 12.448-12.576 12.32-32.832-0.256-45.248L534.176 362.528C527.936 356.352 519.808 353.28 511.68 353.28z"  horiz-adv-x="1024" />

    
    <glyph glyph-name="pencle" unicode="&#58941;" d="M855.780741 580.2414759999999c15.699564 15.699564 15.699564 39.247886 0 54.94745l-90.270956 90.270956c-15.699564 15.699564-39.247886 15.699564-54.94745 0l-70.647013-70.647013 149.143808-149.143808L855.780741 580.2414759999999zM161.086815 179.909765l0-149.143808 149.143808 0 431.729815 435.655218-149.142785 149.143808L161.086815 179.909765z"  horiz-adv-x="1024" />

    
    <glyph glyph-name="stop-record" unicode="&#59495;" d="M512 896C229.216 896 0 666.784 0 384s229.216-512 512-512 512 229.216 512 512S794.784 896 512 896zM512-32c-229.76 0-416 186.24-416 416S282.24 800 512 800s416-186.24 416-416S741.76-32 512-32zM320 576L704 576 704 192 320 192z"  horiz-adv-x="1024" />

    
    <glyph glyph-name="speaker" unicode="&#59149;" d="M360 179.20000000000005L864-128 864 896 360 588.8 226.688 588.8C160 588.8 160 520.512 160 520.512l0-273.088c0 0 0-68.288 66.688-68.288L360 179.13599999999997z"  horiz-adv-x="1024" />

    
    <glyph glyph-name="send" unicode="&#59065;" d="M437.513-35.464h40.421c0 0 0.512 179.123 0 192.681s5.349 28.418 11.257 35.303c5.909 6.886 448.72 522.91 448.72 522.91s-122.217-624.553-123.843-632.834c-1.258-6.394-5.435-9.122-11.235-7.245-6.997 2.266-262.478 81.865-262.478 81.865l-12.983-39.397c0 0 242.572-76.187 266.763-83.399 26.606-7.931 54.235 9.21 59.863 39.397 4.645 24.906 131.177 668.911 133.033 680.497 1.853 11.584 6.98 27.97-12.515 37.379-14.433 6.967-31.829-8.045-31.829-8.045l-5.458 10.577c0 0-820.095-437.89-849.344-453.665s-27.952-49.001-3.411-56.965c24.541-7.963 272.199-88.343 272.199-88.343l12.621 38.886-244.911 78.795 765.433 409.663c0 0-409.322-476.861-426.207-496.304s-26.384-39.653-26.35-65.236c0.033-25.585 0.255-196.519 0.255-196.519z"  horiz-adv-x="1024" />

    
    <glyph glyph-name="triangle-r" unicode="&#58940;" d="M93.37191 838.845427L930.62809 355.36439199999995 93.37191-128Z"  horiz-adv-x="1024" />

    
    <glyph glyph-name="star" unicode="&#58945;" d="M544 848 696 537.6 1038.4 488 792 246.4 849.6-94.4 544 67.2 236.8-94.4 296 246.4 48 488 390.4 537.6 544 848Z"  horiz-adv-x="1072" />

    
    <glyph glyph-name="return" unicode="&#58954;" d="M61.727867 530.578169S301.780326 768.951939 457.079486 896.040944l1.760576-218.92555s495.9501 0 502.992403-459.018953c0 0 10.604398-229.570892-91.754658-346.055497 0 0 77.629108 275.427749 3.521151 413.121151 0 0-74.107957 233.0511-414.758896 141.255498l1.760576-215.404398c-28.210156 0-398.872771 319.564974-398.872771 319.564974z"  horiz-adv-x="1024" />

    
    <glyph glyph-name="plus" unicode="&#58887;" d="M704 448H576V576c0 35.3-28.7 64-64 64s-64-28.7-64-64v-128H320c-35.3 0-64-28.7-64-64s28.7-64 64-64h128v-128c0-35.3 28.7-64 64-64s64 28.7 64 64V320h128c35.3 0 64 28.7 64 64s-28.7 64-64 64z"  horiz-adv-x="1024" />

    
    <glyph glyph-name="minus" unicode="&#58888;" d="M768 384c0 35.3-28.7 64-64 64H320c-35.3 0-64-28.7-64-64s28.7-64 64-64h384c35.3 0 64 28.7 64 64z"  horiz-adv-x="1024" />

    
    <glyph glyph-name="notice" unicode="&#58892;" d="M923.917 496.15h-38.189l-299.439 188.125c-1.39 40.519-34.764 73.060-75.617 73.060-39.287 0-71.668-30.092-75.329-68.436l-306.799-192.749h-28.461c-18.929 0-34.416-15.487-34.416-34.416v-416.652c0-18.929 15.487-34.417 34.416-34.417h823.834c18.929 0 34.416 15.487 34.416 34.417v416.652c0 18.929-15.487 34.416-34.416 34.416zM750.925 321.342c0-19.007-15.409-34.417-34.416-34.417h-412.016c-19.008 0-34.416 15.409-34.416 34.417s15.409 34.416 34.416 34.416h412.016c19.007 0 34.416-15.408 34.416-34.416zM457.891 627.483c13.645-13.299 32.267-21.515 52.781-21.515 19.115 0 36.584 7.138 49.92 18.869l204.831-128.687h-516.574l209.042 131.333zM723.421 158.993h-418.928c-19.007 0-34.416 15.409-34.416 34.416s15.409 34.417 34.416 34.417h418.929c19.007 0 34.416-15.409 34.416-34.417 0-19.007-15.409-34.416-34.417-34.416z"  horiz-adv-x="1024" />

    
    <glyph glyph-name="speakerphone" unicode="&#59123;" d="M88.932174 554.295652c0 93.718261 57.143652 174.83687 138.529391 209.14087h-17.608348c-93.94087 0-171.653565-74.974609-185.36626-171.898435C10.774261 589.267478 0.022261 573.506783 0.022261 554.74087c0-19.656348 11.664696-35.194435 26.512696-36.32974 16.473043-83.21113 80.228174-150.416696 159.321043-157.273043h0.222609c3.205565 0 6.41113-1.357913 9.594434-2.048 2.515478-0.445217 5.030957-0.912696 7.568696-1.602783a226.281739 226.281739 0 0 0-114.309565 196.786087zM989.96313 761.143652a363.965217 363.965217 0 0 1-8.013913 18.966261c-14.848 32.923826-32.901565 59.436522-53.470608 79.09287C902.878609 883.2 873.382957 896 842.99687 896c-18.966261 0-37.487304-5.030957-55.095653-14.625391h-0.222608c-2.738087-1.602783-5.476174-2.982957-8.236522-4.585739a813.367652 813.367652 0 0 0-371.645217-112.907131c-14.870261-0.890435-29.718261-0.445217-44.566261-0.445217h-96.701218c-77.690435-34.281739-134.856348-115.44487-134.856348-209.14087 0-84.123826 43.898435-157.96313 109.256348-196.808348 29.718261-24.932174 95.321043-26.735304 91.425392-54.628174-4.34087-30.163478-12.55513-50.064696-17.808696-70.16626-2.982957-10.974609-53.960348-166.64487-57.833739-330.752 0-4.563478 0-8.45913 0.445217-15.09287 0.445217-6.611478 5.030957-14.625391 19.433739-14.625391h175.549218c15.09287 0 22.171826 7.568696 21.25913 21.25913-0.445217 4.34087-1.380174 9.839304-1.825391 14.870261-5.498435 52.780522-10.529391 113.819826-7.568696 186.501565 2.982957 77.712696 11.909565 118.650435 16.027826 140.109913 4.786087 23.774609 17.363478 51.2 27.648 69.275826 70.38887-2.070261 212.346435-44.121043 263.078957-66.070261 0 0 16.473043-7.769043 23.084522-11.887304 16.005565-7.769043 32.456348-11.642435 49.374608-11.642435 2.070261 0 4.118261 0 6.166261 0.222609 28.115478 1.602783 55.318261 22.171826 79.315478 44.566261 20.813913 19.433739 38.64487 46.169043 53.49287 79.092869 2.738087 6.38887 5.476174 12.8 8.013913 19.656348 21.926957 57.143652 33.814261 127.777391 33.814261 201.371826 0 73.594435-11.887304 144.450783-34.059131 201.594435z m-52.802782-403.433739c-17.808696-42.295652-41.605565-76.109913-67.428174-76.109913s-49.374609 33.613913-67.205565 76.132174c-20.791652 49.352348-34.05913 121.344-34.059131 201.349565 0 80.450783 13.267478 152.709565 34.281739 202.061913 17.853217 42.073043 41.405217 67.428174 67.005218 67.428174 25.822609 0 49.129739-25.6 67.183304-67.428174 21.036522-49.374609 34.281739-121.61113 34.281739-202.061913 0-80.005565-13.245217-151.997217-34.05913-201.371826z"  horiz-adv-x="1024" />

    
    <glyph glyph-name="insert" unicode="&#58895;" d="M682.667 327.111h-614.4C28.444 327.111 0 310.044 0 281.6v-28.444c0-22.756 28.444-39.823 68.267-39.823h614.4c39.822 0 56.889 11.378 56.889 39.823v39.822c0 22.755-17.067 34.133-56.89 34.133z m0-227.555h-614.4C28.444 99.55600000000004 0 82.48900000000003 0 54.04399999999998V25.600000000000023c0-22.756 28.444-39.822 68.267-39.822h614.4c39.822 0 56.889 11.378 56.889 39.822v39.822c0 22.756-17.067 34.134-56.89 34.134zM0 725.333V725.3340000000001z m56.889-56.889h625.778c39.822 0 56.889 22.756 56.889 56.89s-17.067 56.888-56.89 56.888H56.89C22.756 782.222 0 753.778 0 719.644c0-34.133 22.756-51.2 56.889-51.2z m893.155-5.688L762.311 543.289c-28.444-17.067-28.444-68.267 0-85.333l187.733-119.467C984.178 315.73299999999995 1024 344.178 1024 384V617.244c0 39.823-45.511 62.578-73.956 45.512z"  horiz-adv-x="1024" />

    
    <glyph glyph-name="bookmark" unicode="&#59005;" d="M128 768h768v-16H128zM128 672h768v-16H128zM128 576h768v-16H128zM128 480h192v-16H128zM128 384h192v-16H128zM128 288h192v-16H128zM704 480h192v-16H704zM704 384h192v-16H704zM704 288h192v-16H704zM320 560h16v-560h-16zM688 560h16v-560h-16zM498.971 193.70600000000002l11.314 11.314L703.99 11.316000000000031l-11.313-11.314zM331.312-0.006999999999948159l-11.314 11.313 185.704 185.705 11.314-11.314z"  horiz-adv-x="1024" />

    
    <glyph glyph-name="information" unicode="&#58889;" d="M512 853.333333c260.266667 0 469.333333-209.066667 469.333333-469.333333s-209.066667-469.333333-469.333333-469.333333S42.666667 123.73333300000002 42.666667 384 251.733333 853.333333 512 853.333333m0 42.666667C230.4 896 0 665.6 0 384s230.4-512 512-512 512 230.4 512 512S793.6 896 512 896zM554.666667 640h-85.333334v-85.333333h85.333334zM512 426.666667v-256 256m42.666667 42.666666h-85.333334v-341.333333h85.333334v341.333333z"  horiz-adv-x="1024" />

    
    <glyph glyph-name="ok" unicode="&#58890;" d="M957.764267 612.522667l-528.042667-528.042667c-0.324267-0.341333-0.546133-0.750933-0.887467-1.092267a51.165867 51.165867 0 0 0-36.283733-15.018666 50.926933 50.926933 0 0 0-36.1472 14.933333l-0.034133 0.0512-0.034134 0.017067L66.304 373.418667a51.268267 51.268267 0 0 0 72.4992 72.4992l254.020267-254.020267 492.782933 492.782933a51.012267 51.012267 0 1 0 72.157867-72.157866z"  horiz-adv-x="1024" />

    
    <glyph glyph-name="favorite" unicode="&#58898;" d="M512-59.903999999999996l-16.896 15.104C482.048-33.27999999999997 179.2 236.288 114.176 331.00800000000004c-93.696 136.448-84.992 307.2 21.248 414.72A239.104 239.104 0 0 0 308.992 819.2 311.552 311.552 0 0 0 512 737.024 309.76 309.76 0 0 0 713.472 819.2a237.824 237.824 0 0 0 172.8-73.472c106.24-107.776 114.944-278.272 21.248-414.72-64.768-94.464-365.568-364.288-378.368-375.808zM308.992 768a189.184 189.184 0 0 1-137.216-58.368c-90.112-91.392-94.976-231.936-15.36-349.696C209.152 281.6 445.952 68.096 512 8.70399999999995 577.536 68.096 812.544 281.6 865.28 359.93600000000004c80.896 117.76 74.496 258.304-15.36 349.696A188.416 188.416 0 0 1 713.472 768a264.448 264.448 0 0 1-183.296-84.224L512 665.6l-18.176 18.432A265.984 265.984 0 0 1 308.992 768z"  horiz-adv-x="1024" />

    
    <glyph glyph-name="chat" unicode="&#58899;" d="M51.2 793.6v-665.6h307.2l153.6-179.2 153.6 179.2h307.2V793.6z m870.4-614.4H642.048l-15.36-17.92L512 27.392000000000053l-114.688 133.888-15.36 17.92H102.4V742.4h819.2zM307.2 588.8h409.6v-51.2H307.2zM307.2 435.2h204.8v-51.2h-204.8z"  horiz-adv-x="1024" />

    
    <glyph glyph-name="my" unicode="&#58900;" d="M512 793.6c78.848 0 128-63.744 128-166.4S590.848 460.8 512 460.8s-128 63.744-128 166.4S433.152 793.6 512 793.6m0 51.2c-99.072 0-179.2-76.8-179.2-217.6s80.128-217.6 179.2-217.6 179.2 76.8 179.2 217.6S611.072 844.8 512 844.8zM896-76.79999999999995h-51.2v87.808C844.8 174.336 695.552 307.20000000000005 512 307.20000000000005S179.2 174.336 179.2 11.008000000000038V-76.79999999999995H128v87.808C128 202.49599999999998 300.288 358.4 512 358.4s384-155.904 384-347.392z"  horiz-adv-x="1024" />

    
    <glyph glyph-name="course" unicode="&#58901;" d="M283.392 819.2H76.8v-870.4h870.4V819.2zM128 0V768h104.192v-768z m768 0H283.392V768H896zM384 614.4h409.6v-51.2H384zM384 460.8h409.6v-51.2H384z"  horiz-adv-x="1024" />

    
    <glyph glyph-name="home-selected" unicode="&#58902;" d="M102.4 435.2v-537.6h332.8V153.60000000000002h153.6v-256h332.8V435.2L512 844.8 102.4 435.2z"  horiz-adv-x="1024" />

    
    <glyph glyph-name="home" unicode="&#58903;" d="M512 772.352l358.4-358.4V-51.200000000000045h-230.4V204.79999999999995H384v-256H153.6V413.952l358.4 358.4M512 844.8L102.4 435.2v-537.6h332.8V153.60000000000002h153.6v-256h332.8V435.2L512 844.8z"  horiz-adv-x="1024" />

    
    <glyph glyph-name="course-selected" unicode="&#58904;" d="M921.6 819.2H76.8v-870.4h870.4V819.2zM232.192 0H128V768h104.192zM793.6 409.6H384v51.2h409.6z m0 153.6H384v51.2h409.6z"  horiz-adv-x="1024" />

    
    <glyph glyph-name="favorite-selected" unicode="&#58905;" d="M886.272 745.7280000000001A237.824 237.824 0 0 1 713.472 819.2 309.76 309.76 0 0 1 512 737.024 311.552 311.552 0 0 1 308.992 819.2a239.104 239.104 0 0 1-173.568-73.472c-107.776-109.312-116.48-276.224-21.248-414.72C179.2 236.54399999999998 482.048-33.27999999999997 495.104-44.799999999999955l16.896-15.104 17.152 15.104c12.8 11.52 313.6 281.6 378.368 375.808 95.232 138.496 86.528 305.408-21.248 414.72z"  horiz-adv-x="1024" />

    
    <glyph glyph-name="my-selected" unicode="&#58906;" d="M332.8 627.2a217.6 179.2 90 1 1 358.4 0 217.6 179.2 90 1 1-358.4 0ZM512 358.4c-211.712 0-384-155.904-384-347.392V-76.79999999999995h768v87.808C896 202.49599999999998 723.712 358.4 512 358.4z"  horiz-adv-x="1024" />

    
    <glyph glyph-name="chat-selected" unicode="&#58907;" d="M51.2 793.6v-665.6h307.2l153.6-179.2 153.6 179.2h307.2V793.6z m460.8-409.6h-204.8v51.2h204.8z m204.8 153.6H307.2v51.2h409.6z"  horiz-adv-x="1024" />

    
    <glyph glyph-name="clock" unicode="&#58908;" d="M512 725.333333A369.777778 369.777778 0 1 0 142.222222 355.555556 369.777778 369.777778 0 0 0 512 725.333333m0 56.888889a426.666667 426.666667 0 1 1 426.666667-426.666666A426.666667 426.666667 0 0 1 512 782.222222zM142.222222 696.8888890000001a28.444444 28.444444 0 0 0-22.755555 11.377778 28.444444 28.444444 0 0 0 5.688889 39.822222l113.777777 85.333333a28.444444 28.444444 0 0 0 34.133334-45.511111l-113.777778-85.333333A28.444444 28.444444 0 0 0 142.222222 696.8888890000001zM881.777778 696.8888890000001a28.444444 28.444444 0 0 0-17.066667 5.688889l-113.777778 85.333333a28.444444 28.444444 0 1 0 34.133334 45.511111l113.777777-85.333333a28.444444 28.444444 0 0 0 5.688889-39.822222 28.444444 28.444444 0 0 0-22.755555-11.377778zM398.222222 213.33333300000004a28.444444 28.444444 0 0 0-20.195555 8.248889 28.444444 28.444444 0 0 0 0 40.391111l105.528889 105.244445V583.1111109999999a28.444444 28.444444 0 0 0 56.888888 0v-227.555555a28.444444 28.444444 0 0 0-8.248888-20.195556l-113.777778-113.777778A28.444444 28.444444 0 0 0 398.222222 213.33333300000004z"  horiz-adv-x="1024" />

    
    <glyph glyph-name="select" unicode="&#58909;" d="M512 810.666667A426.666667 426.666667 0 1 0 85.333333 384 426.666667 426.666667 0 0 0 512 810.666667m0 85.333333a512 512 0 1 1 512-512A512 512 0 0 1 512 896zM448 192a42.666667 42.666667 0 0 0-30.293333 12.373333l-149.333334 149.333334a42.666667 42.666667 0 0 0 60.586667 60.586666l119.04-119.466666 247.04 247.466666a42.666667 42.666667 0 0 0 60.586667-60.586666l-277.333334-277.333334a42.666667 42.666667 0 0 0-30.293333-12.373333z"  horiz-adv-x="1024" />

    
    <glyph glyph-name="share" unicode="&#58910;" d="M948.148148 611.555556H630.139259a356.503704 356.503704 0 0 1 74.714074 54.234074c42.097778 43.425185 46.459259 109.605926 9.671111 147.531851A85.712593 85.712593 0 0 1 651.946667 839.111111a113.777778 113.777778 0 0 1-80.402963-35.84A393.291852 393.291852 0 0 1 512 712.438519a393.291852 393.291852 0 0 1-59.543704 90.832592A113.777778 113.777778 0 0 1 372.053333 839.111111a85.712593 85.712593 0 0 1-62.577777-25.78963c-36.788148-37.925926-32.426667-104.106667 9.671111-147.531851A356.503704 356.503704 0 0 1 393.860741 611.555556H75.851852v-246.518519h56.888889v-436.148148h758.518518V365.03703700000005h56.888889zM549.925926 421.925926h-75.851852v132.740741h75.851852z m62.388148 341.333333a56.888889 56.888889 0 0 0 39.632593 18.962963 28.823704 28.823704 0 0 0 21.807407-8.533333c14.980741-15.54963 10.42963-47.407407-9.860741-68.456296a360.296296 360.296296 0 0 0-122.121481-71.300741A372.811852 372.811852 0 0 0 612.314074 763.2592589999999z m-262.068148 10.42963A28.823704 28.823704 0 0 0 372.053333 782.222222a56.888889 56.888889 0 0 0 39.632593-18.962963 372.811852 372.811852 0 0 0 70.542222-129.706666A360.296296 360.296296 0 0 0 360.296296 705.232593c-20.48 20.100741-25.031111 52.906667-10.05037 68.456296zM132.740741 554.666667h284.444444v-132.740741H132.740741z m56.888889-568.888889V365.03703700000005h227.555555v-379.259259z m284.444444 0V365.03703700000005h75.851852v-379.259259z m360.296296 0H606.814815V365.03703700000005h227.555555z m56.888889 436.148148H606.814815v132.740741h284.444444z"  horiz-adv-x="1024" />

    
    <glyph glyph-name="arrow-r" unicode="&#58911;" d="M770.048 420.181333l-358.4 358.4a51.2 51.2 0 0 1-72.362667-72.362666L661.504 384l-322.218667-322.218667a50.858667 50.858667 0 0 1 0-72.362666 51.2 51.2 0 0 1 72.362667 0l358.4 358.4a50.858667 50.858667 0 0 1 0 72.362666z"  horiz-adv-x="1024" />

    
    <glyph glyph-name="arrow-t" unicode="&#58913;" d="M512 554.666667a42.666667 42.666667 0 0 0 30.293333-12.373334l341.333334-341.333333a42.666667 42.666667 0 0 0-60.586667-60.586667L512 450.986667l-311.04-311.466667a42.666667 42.666667 0 0 0-60.586667 60.586667l341.333334 341.333333A42.666667 42.666667 0 0 0 512 554.666667z"  horiz-adv-x="1024" />

    
    <glyph glyph-name="arrow-b" unicode="&#58914;" d="M512 128a42.666667 42.666667 0 0 0-30.293333 12.373333l-341.333334 341.333334a42.666667 42.666667 0 1 0 61.013334 59.733333L512 230.39999999999998l311.466667 311.04a42.666667 42.666667 0 1 0 60.16-60.586667l-341.333334-341.333333A42.666667 42.666667 0 0 0 512 128z"  horiz-adv-x="1024" />

    
    <glyph glyph-name="pause" unicode="&#59390;" d="M304 720h80v-672h-80zM712 720h-64c-4.4 0-8-3.6-8-8v-656c0-4.4 3.6-8 8-8h64c4.4 0 8 3.6 8 8V712c0 4.4-3.6 8-8 8z"  horiz-adv-x="1024" />

    
    <glyph glyph-name="people" unicode="&#58912;" d="M369.777778 611.555556m-170.666667 0a170.666667 170.666667 0 1 1 341.333333 0 170.666667 170.666667 0 1 1-341.333333 0ZM711.111111 583.1111109999999m-142.222222 0a142.222222 142.222222 0 1 1 284.444444 0 142.222222 142.222222 0 1 1-284.444444 0ZM369.777778 384a314.595556 314.595556 0 0 1-312.888889-275.342222 459.662222 459.662222 0 0 1 625.777778 0A314.595556 314.595556 0 0 1 369.777778 384zM967.111111 139.37777800000003a287.004444 287.004444 0 0 1-282.737778 244.622222 281.6 281.6 0 0 1-115.484444-25.031111S739.555556 241.777778 712.817778 42.66666699999996A411.875556 411.875556 0 0 1 967.111111 139.37777800000003z"  horiz-adv-x="1024" />

    
    <glyph glyph-name="person" unicode="&#58915;" d="M512 582.542222m-170.666667 0a170.666667 170.666667 0 1 1 341.333334 0 170.666667 170.666667 0 1 1-341.333334 0ZM512 355.555556a314.595556 314.595556 0 0 1-312.888889-275.911112 459.662222 459.662222 0 0 1 625.777778 0A314.595556 314.595556 0 0 1 512 355.555556z"  horiz-adv-x="1024" />

    
    <glyph glyph-name="wechat" unicode="&#58916;" d="M597.333333 384a29.44 29.44 0 1 1 0-58.453333 33.28 33.28 0 0 1 36.693334 29.013333A33.28 33.28 0 0 1 597.333333 384zM756.906667 384a29.44 29.44 0 0 1 0-58.453333 33.28 33.28 0 0 1 36.266666 29.013333 33.28 33.28 0 0 1-36.266666 29.44zM298.666667 597.333333a42.666667 42.666667 0 0 1-42.666667-36.693333 42.666667 42.666667 0 0 1 42.666667-36.693333 34.56 34.56 0 0 1 36.266666 36.693333A34.56 34.56 0 0 1 298.666667 597.333333zM500.906667 522.666667a34.56 34.56 0 0 1 36.693333 36.693333 34.56 34.56 0 0 1-36.693333 37.973333 42.666667 42.666667 0 0 1-42.666667-36.693333 42.666667 42.666667 0 0 1 42.666667-37.973333zM512 896a512 512 0 1 1 512-512A512 512 0 0 1 512 896zM391.253333 223.14666699999998a493.653333 493.653333 0 0 0-101.973333 14.506666l-102.4-51.2 29.44 87.893334A238.933333 238.933333 0 0 0 99.413333 469.333333c0 139.093333 131.413333 248.746667 291.84 248.746667 143.786667 0 269.653333-87.466667 294.826667-205.226667h-28.16a239.36 239.36 0 0 1-248.32-227.413333 219.733333 219.733333 0 0 1 8.96-61.013333c-8.96-0.853333-17.92-1.28-27.306667-1.28z m430.933334-102.4l22.186666-72.96-80.213333 42.666666a348.16 348.16 0 0 0-87.466667-14.933333C537.6 76.79999999999995 426.666667 170.66666699999996 426.666667 288.853333s109.653333 213.333333 248.746666 213.333334c130.986667 0 247.893333-95.146667 247.893334-213.333334a220.586667 220.586667 0 0 0-101.12-168.106666z"  horiz-adv-x="1024" />

    
    <glyph glyph-name="aboutus" unicode="&#58917;" d="M986.074074 384A474.074074 474.074074 0 1 0 512 858.074074a474.074074 474.074074 0 0 0 474.074074-474.074074z m-663.703704 151.703704a56.888889 56.888889 0 1 1 56.888889-56.888889 56.888889 56.888889 0 0 1-56.888889 56.888889z m379.25926 0a56.888889 56.888889 0 1 1 56.888889-56.888889 56.888889 56.888889 0 0 1-56.888889 56.888889zM512 175.40740700000003a113.777778 113.777778 0 0 1 113.777778 113.777778H398.222222a113.777778 113.777778 0 0 1 113.777778-113.777778z"  horiz-adv-x="1024" />

    
    <glyph glyph-name="discount" unicode="&#58918;" d="M967.111111 402.962963v132.740741a37.925926 37.925926 0 0 1-37.925926 37.925926H94.814815a37.925926 37.925926 0 0 1-37.925926-37.925926v-132.740741a113.777778 113.777778 0 0 0 0-227.555556v-132.74074a37.925926 37.925926 0 0 1 37.925926-37.925926h834.37037a37.925926 37.925926 0 0 1 37.925926 37.925926v132.74074a113.777778 113.777778 0 0 0 0 227.555556z m-322.37037-75.851852v-37.925926h-113.777778v-56.888889h113.777778v-37.925926h-113.777778v-94.814814h-37.925926v94.814814h-113.777778v37.925926h113.777778v56.888889h-113.777778v37.925926h104.296297l-132.740741 151.703704h56.888889l104.296296-119.277037L616.296296 478.814815h56.888889l-132.740741-151.703704z m246.518518 265.481482H132.740741v37.925926a37.925926 37.925926 0 0 0 37.925926 37.925925h682.666666a37.925926 37.925926 0 0 0 37.925926-37.925925z m-75.851852 94.814814H208.592593V729.315556A33.943704 33.943704 0 0 0 242.536296 763.2592589999999h538.927408A33.943704 33.943704 0 0 0 815.407407 729.315556z"  horiz-adv-x="1024" />

    
    <glyph glyph-name="enrolled-teacher" unicode="&#58919;" d="M606.814815 658.962963A199.111111 199.111111 0 1 0 407.703704 858.074074 199.111111 199.111111 0 0 0 606.814815 658.962963zM568.888889 137.48148100000003a227.555556 227.555556 0 0 0 99.934815 188.302223A379.259259 379.259259 0 0 1 37.925926 42.66666699999996s94.814815-132.740741 379.259259-132.740741a653.084444 653.084444 0 0 1 246.518519 42.856296A226.417778 226.417778 0 0 0 568.888889 137.48148100000003z m227.555555 189.62963a189.62963 189.62963 0 1 1 189.62963-189.62963 189.62963 189.62963 0 0 1-189.62963 189.62963z m-18.962963-292.219259l-98.797037 98.607407 26.927408 26.927408 71.869629-72.05926 109.795556 109.985186 26.927407-26.927408z"  horiz-adv-x="1024" />

    
    <glyph glyph-name="enrolled-course" unicode="&#58920;" d="M208.592593-52.14814799999999H132.740741a37.925926 37.925926 0 0 0-37.925926 37.925926V782.222222a37.925926 37.925926 0 0 0 37.925926 37.925926h75.851852z m75.851851 0h606.814815a37.925926 37.925926 0 0 1 37.925926 37.925926V782.222222a37.925926 37.925926 0 0 1-37.925926 37.925926H284.444444z m512 625.777778H436.148148v37.925926h360.296296z m0-208.592593H436.148148v37.925926h360.296296z m0-208.592593H436.148148v37.925926h360.296296z"  horiz-adv-x="1024" />

    
    <glyph glyph-name="money" unicode="&#58921;" d="M1024 384A512 512 0 1 0 512 896a512 512 0 0 0 512-512z m-75.851852 0a436.148148 436.148148 0 1 1-436.148148-436.148148 436.148148 436.148148 0 0 1 436.148148 436.148148z m-37.925926 0A398.222222 398.222222 0 1 0 512 782.222222a398.222222 398.222222 0 0 0 398.222222-398.222222z m-237.037037 170.666667h-56.888889L512 435.38963 407.703704 554.666667h-56.888889l132.740741-151.703704H379.259259v-37.925926h113.777778v-56.888889h-113.777778v-37.925926h113.777778v-94.814815h37.925926v94.814815h113.777778v37.925926h-113.777778v56.888889h113.777778v37.925926h-104.296297z"  horiz-adv-x="1024" />

    
    <glyph glyph-name="feedback" unicode="&#58922;" d="M967.111111 725.333333v-568.888889a37.925926 37.925926 0 0 0-37.925926-37.925925H638.672593L512-8.154074000000037 385.327407 118.51851899999997H94.814815a37.925926 37.925926 0 0 0-37.925926 37.925925V725.333333a37.925926 37.925926 0 0 0 37.925926 37.925926h834.37037a37.925926 37.925926 0 0 0 37.925926-37.925926zM322.37037 478.814815a37.925926 37.925926 0 1 1 37.925926-37.925926 37.925926 37.925926 0 0 1-37.925926 37.925926z m189.62963 0a37.925926 37.925926 0 1 1 37.925926-37.925926 37.925926 37.925926 0 0 1-37.925926 37.925926z m189.62963 0a37.925926 37.925926 0 1 1 37.925926-37.925926 37.925926 37.925926 0 0 1-37.925926 37.925926z"  horiz-adv-x="1024" />

    
    <glyph glyph-name="enroll-teacher" unicode="&#58923;" d="M568.888889 137.48148100000003a227.555556 227.555556 0 0 0 99.934815 188.302223A379.259259 379.259259 0 0 1 37.925926 42.66666699999996s94.814815-132.740741 379.259259-132.740741a653.084444 653.084444 0 0 1 246.518519 42.856296A226.417778 226.417778 0 0 0 568.888889 137.48148100000003zM407.703704 658.962963m-199.111111 0a199.111111 199.111111 0 1 1 398.222222 0 199.111111 199.111111 0 1 1-398.222222 0ZM796.444444 327.11111100000005a189.62963 189.62963 0 1 1 189.62963-189.62963 189.62963 189.62963 0 0 1-189.62963 189.62963z m94.814815-208.592592h-75.851852v-75.851852h-37.925926v75.851852h-75.851851v37.925925h75.851851v75.851852h37.925926v-75.851852h75.851852z"  horiz-adv-x="1024" />

    
    <glyph glyph-name="huaban" unicode="&#58924;" d="M637.952 128.80896H386.0992A129.29024 129.29024 0 0 0 256.80896 258.048V639.19104H637.952a129.29024 129.29024 0 0 0 129.23904-129.29024V258.048A129.29024 129.29024 0 0 0 637.952 128.80896z m-55.78752 308.71552l94.0032 43.32544L546.816 540.4672a83.21024 83.21024 0 0 1-69.89824 0l-129.08544-59.51488 93.89056-43.38688 70.17472-32.43008zM567.296 378.3168a59.2896 59.2896 0 0 1-18.75968-43.38688v-10.72128L594.35008 345.088l81.8176 37.57056-52.81792 24.35072-41.6256-18.78016a55.02976 55.02976 0 0 1-14.42816-9.91232z m55.63392-69.55008l-41.61536-18.78016c-20.1728-9.29792-33.19808-30.19776-33.19808-53.248v-11.12064l128.06144 58.624z"  horiz-adv-x="1024" />

    
    <glyph glyph-name="huaban1" unicode="&#58925;" d="M727.205161 335.023325H543.266303a94.446849 94.446849 0 0 0-94.446849 94.446849V707.843176h278.385707a94.446849 94.446849 0 0 0 94.446849-94.446848v-183.926154a94.446849 94.446849 0 0 0-94.446849-94.446849z m-40.655087 225.508685l68.605459 31.647444L660.645161 635.731216a60.779355 60.779355 0 0 1-51.060248 0l-94.319801-43.475534 68.605459-31.698263 51.263523-23.694292z m-10.862531-43.19603A43.310372 43.310372 0 0 1 661.915633 485.637717v-7.826104l33.476923 15.245657 59.712159 27.442184-38.584219 17.786601-30.402382-13.721092a40.134194 40.134194 0 0 1-10.494094-7.279802z m40.655087-50.818858l-30.389677-13.721092c-14.737469-6.784318-24.2533-22.055385-24.2533-38.901836v-8.131018l93.544814 42.827593zM245.11206 74.157419V141.594045l-60.067891 83.266699h21.598015a27.13727 27.13727 0 0 0 22.373002-11.77727l31.63474-46.105409 31.761786 46.130818a27.124566 27.124566 0 0 0 22.347593 11.751861h17.35464l-59.85191-82.402779v-41.163275a27.124566 27.124566 0 0 0-27.124566-27.137271z m111.013796 0v123.782035a26.92129 26.92129 0 0 0 26.908586 26.92129v-123.782034a26.92129 26.92129 0 0 0-26.908586-26.921291z m61.65598 0v123.566055a27.13727 27.13727 0 0 0 27.137271 27.13727v-62.875632l56.192953 55.113052a27.149975 27.149975 0 0 0 19.057072 7.76258h27.861439L471.344913 153.854094l85.998214-79.696675h-32.269976a27.13727 27.13727 0 0 0-18.764863 7.470373l-61.389181 58.835533v-39.168635a27.13727 27.13727 0 0 0-27.137271-27.137271z m153.574591 0v125.039802a25.663524 25.663524 0 0 0 25.663523 25.663523h92.744417a25.650819 25.650819 0 0 0-25.650819-25.663523H598.265012v-33.642085h70.777966a25.663524 25.663524 0 0 0-25.663524-25.663523H598.265012v-37.364566h92.566551v-2.706104a25.676228 25.676228 0 0 0-25.663523-25.663524z m218.991166 0V198.511166a26.374988 26.374988 0 0 0 26.374988 26.374988h90.584615A26.374988 26.374988 0 0 0 880.932208 198.511166h-63.676029v-39.638709h66.064516v-1.143425a26.387692 26.387692 0 0 0-26.374988-26.374987h-39.689528v-30.796229a26.374988 26.374988 0 0 0-26.374988-26.374987z m143.982531 0V224.860744h9.426898a21.775881 21.775881 0 0 0 18.688636-10.595732l48.150868-80.54789 47.007444 80.319206a21.788586 21.788586 0 0 0 18.802978 10.786302h9.058461v-150.665211h-3.176178a21.775881 21.775881 0 0 0-21.763176 21.775881V167.257568c0 1.804069 0.088933 4.090918 0.266799 6.847841s0.419256 5.844169 0.711464 9.261737c-1.461042-3.887643-2.731514-7.101935-3.811415-9.617469s-2.083573-4.586402-2.960198-6.1999L1011.295285 92.261638h-5.361389l-43.539057 75.567642q-2.401191 4.281489-4.103623 8.054789A64.654293 64.654293 0 0 0 955.394541 183.265509q0.343027-4.713449 0.495484-8.550273c0.114342-2.540943 0.165161-5.081886 0.165161-7.419554v-71.324268a21.775881 21.775881 0 0 0-21.775881-21.775881z m-180.063921 13.682978a13.682978 13.682978 0 0 1-13.682977 13.682978 13.682978 13.682978 0 0 1-13.670273-13.682978 13.682978 13.682978 0 0 1 13.670273-13.682978 13.682978 13.682978 0 0 1 13.682977 13.682978z"  horiz-adv-x="1270" />

    
    <glyph glyph-name="huaban2" unicode="&#58926;" d="M546.783402 237.546099H330.25258a111.137173 111.137173 0 0 0-111.137173 111.157685V676.412803h327.585944a111.157685 111.157685 0 0 0 111.157685-111.157685v-216.448771A111.157685 111.157685 0 0 0 546.783402 237.546099z m-47.896881 265.494356l80.799063 37.25085-111.157685 51.281457a71.568401 71.568401 0 0 1-60.101867 0L297.432448 540.373356l80.717012-37.291876 60.327506-27.876599zM486.148208 452.148738a50.932743 50.932743 0 0 1-16.12289-37.291875v-9.230663l39.384158 17.94851 70.337646 32.286805-45.414858 20.922834-35.876507-16.143402a47.589192 47.589192 0 0 1-12.307549-8.492209z m47.835342-59.794178l-35.794456-16.143403a50.173777 50.173777 0 0 1-28.533003-45.784084v-9.558864l110.091031 50.399416zM839.497955 368.354838v79.670871l-70.953023 98.337321h25.49714a32.122704 32.122704 0 0 0 26.461232-13.907531l37.353413-54.460907 37.497001 54.481419a32.020141 32.020141 0 0 0 26.399694 13.887019h20.512582l-70.727385-97.332205v-48.614821a32.061167 32.061167 0 0 0-32.040654-32.061166z m131.116428 0V514.465964a31.794503 31.794503 0 0 0 31.794503 31.794503v-146.213689a31.794503 31.794503 0 0 0-31.794503-31.794503z m72.840181 0v145.967538a32.040654 32.040654 0 0 0 32.040654 32.040654v-74.255549l66.39923 65.086424a31.958604 31.958604 0 0 0 22.440765 9.169125h32.820132l-90.460489-83.855438 101.578309-94.152754h-38.091866a32.102192 32.102192 0 0 0-22.174101 8.902461l-72.51198 69.414579v-46.255874a32.040654 32.040654 0 0 0-32.040654-32.061166z m181.392768 0v147.690595a30.297084 30.297084 0 0 0 30.317597 30.297084h109.516679a30.317597 30.317597 0 0 0-30.317598-30.297084h-77.722175v-39.732873h83.588774a30.317597 30.317597 0 0 0-30.317597-30.317597h-53.332715v-44.122565h109.332066v-3.199963a30.317597 30.317597 0 0 0-30.317598-30.317597z m258.663667 0v146.849579a31.158613 31.158613 0 0 0 31.158613 31.158613h106.99363a31.158613 31.158613 0 0 0-31.1381-31.158613h-75.21964v-46.809714h77.947813v-1.35383a31.158613 31.158613 0 0 0-31.158613-31.138101h-46.7892V399.595501a31.158613 31.158613 0 0 0-31.158613-31.158613z m170.090334 0v178.008192h11.138333a25.702266 25.702266 0 0 0 22.071539-12.512676l56.860879-95.096333 55.486536 94.891207a25.743291 25.743291 0 0 0 22.215126 12.717802h10.687056v-178.008192h-3.73329a25.722779 25.722779 0 0 0-25.722779 25.722778v84.26569c0 2.051258 0.102563 4.820457 0.328202 8.081957s0.492302 6.892228 0.841016 10.933207q-2.584585-6.892228-4.533281-11.363971c-1.292293-2.974324-2.440997-5.415322-3.487139-7.322992l-51.281457-88.922045h-6.338388l-51.425044 89.250246c-1.90767 3.384576-3.507652 6.543514-4.861482 9.517839a74.870926 74.870926 0 0 0-3.282014 8.676822c0.246151-3.712777 0.451277-7.076841 0.574353-10.112703s0.205126-5.948649 0.205126-8.73836v-84.26569a25.743291 25.743291 0 0 0-25.722779-25.722778z m-212.694969 16.163915a16.163915 16.163915 0 0 1-16.163915 16.163915 16.163915 16.163915 0 0 1-16.163915-16.163915 16.163915 16.163915 0 0 1 16.163915-16.163915 16.163915 16.163915 0 0 1 16.163915 16.163915z"  horiz-adv-x="2136" />

    
    <glyph glyph-name="huaban3" unicode="&#58927;" d="M540.596992 244.115573H326.307756a110.048651 110.048651 0 0 0-110.028343 110.048652V678.603651h324.317579a110.048651 110.048651 0 0 0 110.048651-110.048651v-214.289236A110.048651 110.048651 0 0 0 540.596992 244.115573z m-47.419007 262.845487l79.99292 36.879194-110.048651 50.769815a70.854354 70.854354 0 0 1-59.502223 0l-109.86588-50.647967 79.911689-36.960426 59.72561-27.598471z m-12.672146-50.383964a50.505812 50.505812 0 0 1-15.96203-36.91981v-9.138567l38.991218 17.769436 69.635878 31.964675-44.94144 20.714085-35.437331-15.982338a47.114388 47.114388 0 0 1-12.286295-8.407481z m47.358083-59.197605l-35.417023-15.982338a49.652879 49.652879 0 0 1-28.268633-45.327291v-9.463493l108.992639 49.896574zM968.241299 561.975232v-67.503546a25.466139 25.466139 0 0 0-6.478228-17.708512 20.592237 20.592237 0 0 0-15.921414-7.189006h-140.12469l12.936149-6.925002a17.870975 17.870975 0 0 1-1.238784-2.335412c-0.670162-1.401247-1.66525-3.289884-2.985265-5.686219h162.463409v-74.976863a25.689526 25.689526 0 0 0-6.457921-17.566356 20.470389 20.470389 0 0 0-15.941722-7.331162H934.164599v21.851329h20.307926q2.74157 0 2.74157 3.046189V432.776206h-26.562767c-1.66525-3.3305-4.183433-8.12317-7.595164-14.215548a162.869567 162.869567 0 0 0-13.565695-20.064231 281.853706 281.853706 0 0 0-20.307926-23.090112 189.412026 189.412026 0 0 0-27.740627-23.252575l-10.458582 18.277133a197.961663 197.961663 0 0 1 20.307926 16.591576q9.077643 8.590253 16.246341 16.733731a157.955049 157.955049 0 0 1 12.083216 15.637103q4.955134 7.453009 8.468405 13.281384h-39.417684c-1.827713-2.396335-5.219137-6.55946-10.153963-12.448759s-11.270899-12.590914-18.90668-20.064231-16.510344-15.352792-26.643999-23.658734a268.328627 268.328627 0 0 0-33.345614-23.232267l-9.219799 19.08945a270.278188 270.278188 0 0 1 22.663646 15.210637q10.681969 8.12317 19.77992 16.043262t16.429112 15.494947q7.351469 7.493625 12.570606 13.565695H800.132287a171.744131 171.744131 0 0 0-12.184756-14.804478 190.427423 190.427423 0 0 0-15.941722-15.352792l-11.94106 17.160197A136.773882 136.773882 0 0 1 775.762776 435.010078q6.742231 7.73732 11.575518 14.520167a141.30255 141.30255 0 0 1 7.838859 12.042601q2.985265 5.239445 4.488052 8.12317h-17.424201v92.401064z m-166.281299-21.851328v-12.997073h146.623227v12.997073z m143.881657-48.739023q2.74157 0 2.74157 3.046189v10.783509h-146.623227v-13.829698z m212.806757-73.859927v44.860209h-19.658073v-37.366584a83.262497 83.262497 0 0 0-17.4242-17.282045 159.275064 159.275064 0 0 0-20.531313-12.875226 161.366781 161.366781 0 0 0-20.795317-9.118258q-10.153963-3.594503-18.419289-5.808067a135.352327 135.352327 0 0 0-13.321999-3.046189c-3.391424-0.548314-5.178521-0.832625-5.340985-0.832625l2.477567-21.587326c0.507698 0 2.822802 0.385851 6.985927 1.116936s9.361954 2.030793 15.677719 3.736659 13.403231 4.061585 21.282706 7.04685a185.16767 185.16767 0 0 1 23.902429 11.06782 150.522348 150.522348 0 0 1 23.272884 15.901106 108.078783 108.078783 0 0 1 19.658072 21.363938z m-101.53963 143.313034v-21.871636h170.017957v-13.261076h-162.05725v-21.871636h162.036942v-11.392747c0-2.172948-0.913857-3.269576-2.74157-3.269576l-167.276387-0.284311v-21.567017h167.276387a20.734393 20.734393 0 0 1 15.819874 7.189005 25.283368 25.283368 0 0 1 6.600076 17.708512V560.91922z m48.292248-150.522348l9.971191 18.541137L1070.227704 458.79066l-9.950884-18.825448z m153.588845-35.132712l-99.062064 37.630587-6.437612-20.714085 99.326066-37.346276z m-66.711538 35.132712l45.063288 29.608956-9.950883 18.825448L1182.063453 428.9177z m142.86626-56.151415a19.658072 19.658072 0 0 1 19.678381 19.658072v101.53963a195.64656 195.64656 0 0 1 15.170021 19.77992c3.655427 5.625296 5.645603 8.610561 5.97053 8.996412l-16.246341 12.184755a57.836973 57.836973 0 0 0-3.513271-5.523756c-2.335411-3.513271-5.625296-7.940399-9.910268-13.281383s-9.382262-11.209975-15.291869-17.566356a184.09135 184.09135 0 0 0-19.57684-18.134978l11.45367-17.708512q3.22896 2.497875 6.214225 5.117597c2.030793 1.76679 4.061585 3.553887 5.970531 5.401909z m22.338719 216.360644c-4.467744-6.843771-8.7121-12.773685-12.692454-17.850667s-8.793332-10.621045-14.438935-16.611884a191.158508 191.158508 0 0 0-18.662984-17.282045l11.45367-17.708511a208.745172 208.745172 0 0 1 20.409466 18.947295q9.199491 9.808728 15.799566 18.277133c4.40682 5.625296 7.798244 10.336734 10.153963 14.114009s3.777274 5.848683 4.061585 6.234533z m25.648911-119.532453v-40.615852a47.033157 47.033157 0 0 0-2.497875-15.494948 85.029286 85.029286 0 0 0-5.462832-12.712761 79.566454 79.566454 0 0 0-7.981015-11.900445l13.70785-15.494948c0.162463 0.182771 1.401247 1.746482 3.736658 4.711439a90.512426 90.512426 0 0 1 7.574857 11.758289 94.452164 94.452164 0 0 1 7.351469 17.424201 70.854354 70.854354 0 0 1 3.22896 21.709173v18.825447h31.619441v-51.744595l-7.960707-6.356381 11.189667-17.708512 35.599795 27.943707-11.453671 17.708511-7.717012-6.092378v58.080669z m78.652597 104.037505h-19.658072v-34.056392a3.310192 3.310192 0 0 0-0.873241-2.335411 2.74157 2.74157 0 0 0-2.030793-0.974781h-7.960707v51.785212h-19.67838v-51.744596h-12.976765v37.366584H1378.90818V495.933856h60.41608a20.714085 20.714085 0 0 1 15.982338 7.189006 25.466139 25.466139 0 0 1 6.478228 17.708512z m-81.637862-92.685374h76.946731v21.891944h-76.906116z m152.309445 63.360729h5.706527v21.891944h-43.215266c0.812317 5.340985 1.401247 9.625957 1.726173 12.854918s0.507698 5.036366 0.507698 5.401908l-19.658072 1.380939q-0.995088-11.06782-2.497875-19.495609c-0.995088-5.645603-2.396335-11.758289-4.224048-18.398981a97.782664 97.782664 0 0 0-7.473317-19.089451l17.180505-10.803816a105.418444 105.418444 0 0 1 5.58468 13.139228c1.584018 4.528668 2.944649 8.894872 4.061585 13.159536H1512.940492v-14.946634q0-0.812317-0.365543-5.117597c-0.243695-2.863418-0.690469-6.681308-1.340323-11.494286s-1.543402-10.458582-2.660338-17.018042-2.680646-13.768774-4.630207-21.709173l-12.692454 31.274206-17.911591-9.138567 21.323323-52.292909q-4.99575-13.829698-11.839521-28.431097a324.155116 324.155116 0 0 0-15.799567-29.608956l16.429112-12.184756q6.478228 11.331823 11.941061 22.338719t9.971192 21.44517L1523.094455 355.809167l17.688204 8.833947-24.917826 61.431477q5.726835 17.424201 9.097951 32.492681c2.25418 10.153963 3.899122 18.80514 4.99575 26.278457s1.787097 13.423539 2.030793 17.850667 0.507698 6.904695 0.507698 7.473317z m88.847177-137.789278l-24.897518-14.39832 8.955796-19.353453 56.516958 32.695761-9.219799 19.414377-11.697365-6.945311V504.057027h-45.956837v-21.851329h26.400304z m184.802127 172.617371v-73.859927a25.648911 25.648911 0 0 0-6.498537-17.586664 20.307926 20.307926 0 0 0-15.75895-7.331161h-35.74195v-12.712762h66.183531v-21.871636H1781.411275l33.101919-61.959483-16.672807-11.067819-37.346276 69.493723 5.462832 3.594503h-17.870975v-73.311614h-19.658072v73.311614h-12.184756q-2.233872-5.503448-6.092378-13.829698c-2.558799-5.523756-5.747143-11.534902-9.544725-17.972515s-8.32625-13.240768-13.545387-20.307926a183.116569 183.116569 0 0 0-17.749127-20.653161l-13.200152 16.246341a164.291122 164.291122 0 0 1 24.146124 30.015115 236.952881 236.952881 0 0 1 14.438935 26.400304h-31.883444v21.973176h65.61491v12.712762h-57.755742v98.777752z m-115.755179-21.851328v-15.779259h38.09767v15.779259zM1728.427896 483.749101v17.4242h-38.09767V483.749101z m57.999436 55.054787h-38.341364v-15.779258h38.341364zM1783.685762 483.749101q2.74157 0 2.74157 3.046189v14.378011h-38.341364V483.749101z m-142.358561 65.980452h-46.32238v-21.912253h46.32238z"  horiz-adv-x="2137" />

    
    <glyph glyph-name="huaban4" unicode="&#58928;" d="M727.128933 335.46799H543.342531a94.37062 94.37062 0 0 0-94.37062 94.37062V707.970223h278.157022a94.37062 94.37062 0 0 0 94.37062-94.37062v-183.760993a94.37062 94.37062 0 0 0-94.37062-94.37062z m-40.655087 225.330819l68.605459 31.622035L660.645161 635.934491a60.690422 60.690422 0 0 1-51.022134 0l-94.230868-43.437419 68.516526-31.672854 51.225409-23.668883z m-10.862531-43.19603A43.284963 43.284963 0 0 1 661.915633 485.917221v-7.826104l33.438809 15.245657 59.712158 27.416774-38.546104 17.786601-30.376972-13.708387a40.134194 40.134194 0 0 1-10.557618-7.241688z m40.655087-50.818858l-30.453201-13.670273c-14.724764-6.784318-24.227891-22.029975-24.227891-38.876427v-8.118313l93.468586 42.789479zM362.973697 235.024516v-57.603176a21.737767 21.737767 0 0 0-5.526551-15.105906 17.545211 17.545211 0 0 0-13.594044-6.136377h-119.576774l11.040397-5.907692a14.68665 14.68665 0 0 1-1.067196-2.007345c-0.559007-1.181538-1.410223-2.795037-2.540943-4.840496h138.697369v-63.968239a21.852109 21.852109 0 0 0-5.526551-14.991563 17.443573 17.443573 0 0 0-13.594044-6.263424h-17.418164v18.650521h17.418164c1.56268 0 2.337667 0.876625 2.337667 2.540943V124.823821h-22.728734c-1.410223-2.833151-3.58273-6.835136-6.479405-12.031364a139.040397 139.040397 0 0 0-11.573995-17.189479 235.710571 235.710571 0 0 0-17.303821-19.717717A161.095782 161.095782 0 0 0 271.880893 56.07861l-8.8933 15.575981a168.540744 168.540744 0 0 1 17.316526 14.165756q7.749876 7.317916 13.810025 14.2801a135.533896 135.533896 0 0 1 10.290819 13.33995q4.243375 6.352357 7.228982 11.332605h-33.629379q-2.312258-3.061836-8.664616-10.621141t-16.147692-17.113251q-9.769926-9.56665-22.71603-20.187791A230.285658 230.285658 0 0 0 202.004963 57.018759l-7.851514 16.300149A226.664814 226.664814 0 0 1 213.439206 86.303127q9.13469 6.847841 16.884566 13.682977t13.975186 13.225608q6.25072 6.352357 10.722779 11.56129h-35.420744a145.913648 145.913648 0 0 0-10.405162-12.628486A160.74005 160.74005 0 0 0 195.652605 99.045955l-10.163771 14.635832a115.612903 115.612903 0 0 1 13.378064 12.984218q5.729826 6.606452 9.884268 12.387097a117.54402 117.54402 0 0 1 6.68268 10.278114c1.702432 2.985608 2.972903 5.272457 3.811415 6.847841h-14.940745v78.845459zM221.062035 216.373995v-11.091216h125.103325v11.091216z m122.765657-41.544417c1.549975 0 2.337667 0.863921 2.337668 2.540943v9.210918H221.062035v-11.80268z m181.588487-63.040794v38.253896h-16.757519v-31.876129a71.146402 71.146402 0 0 0-14.864516-14.750174 133.971216 133.971216 0 0 0-17.519802-10.976873 137.121985 137.121985 0 0 0-17.7866-7.800695q-8.70273-3.049132-15.715732-4.954839c-4.675335-1.270471-8.474045-2.121687-11.37072-2.540943s-4.421241-0.711464-4.560992-0.711464l2.121687-18.409131c0.419256 0 2.401191 0.317618 5.945807 0.940149s8.00397 1.689727 13.378064 3.188883 11.434243 3.506501 18.167742 6.022035a156.344218 156.344218 0 0 1 20.391067 9.439603 128.825806 128.825806 0 0 1 19.857469 13.568635 91.473945 91.473945 0 0 1 16.782928 18.307494zM438.78273 234.084367v-18.650521h145.075136v-11.332605H445.579752v-18.650521h138.278114v-9.731812c0-1.854888-0.787692-2.782333-2.337667-2.782332l-142.737469-0.24139v-18.409131h142.737469a17.659553 17.659553 0 0 1 13.479702 6.110967 21.598015 21.598015 0 0 1 5.628188 15.105906V234.084367z m41.201389-128.43196l8.499454 15.81737-38.444466 25.498362-8.499454-16.058759z m131.112655-29.983127l-84.524466 32.104814-5.526551-17.697667 84.740446-31.876129z m-56.917121 29.983127l38.444466 25.256973-8.499454 16.058759-38.660447-25.498362z m121.96526-47.922184a16.770223 16.770223 0 0 1 16.782928 16.782928v86.620745a168.388288 168.388288 0 0 1 12.958809 16.884566q4.675335 7.178164 5.081886 7.622828l-13.810025 10.392457a47.223424 47.223424 0 0 0-2.985608-4.726154q-2.985608-4.47206-8.46134-11.332605t-13.060446-14.991564a155.848734 155.848734 0 0 0-16.693995-15.461637l9.769925-15.105906c1.842184 1.422928 3.608139 2.871266 5.310571 4.370422s3.392159 3.023722 5.081886 4.599106z m19.057072 184.612209q-5.729826-8.740844-10.837121-15.245658t-12.310869-14.153052a165.008834 165.008834 0 0 0-15.931712-14.762878l9.769925-15.105906a179.606551 179.606551 0 0 1 17.418164 16.173102q7.851514 8.359702 13.479702 15.57598t8.715435 12.044069q3.061836 4.840496 3.493796 5.310571z m21.877519-101.980745v-34.70928a40.299355 40.299355 0 0 0-2.121688-13.212903A74.13201 74.13201 0 0 0 710.193548 81.627792a68.605459 68.605459 0 0 0-6.797022-10.163772l11.675633-13.225608c0.139752 0.165161 1.206948 1.499156 3.188883 4.01469a79.023325 79.023325 0 0 1 6.479405 10.036724 81.310174 81.310174 0 0 1 6.263424 14.877221 60.30928 60.30928 0 0 1 2.769628 18.523474v16.020645h26.972109v-44.148883l-6.797022-5.424913 9.553945-15.118611 30.376973 23.84675-9.769926 15.105905-6.581042-5.183523v49.548387z m67.119007 88.755137H767.364764v-29.055683a2.934789 2.934789 0 0 0-0.736873-1.99464 2.375782 2.375782 0 0 0-1.80407-0.825806h-6.797022v44.161588h-16.770223V197.240695h-11.053102v31.876129h-16.770223v-50.513946h51.555732a17.672258 17.672258 0 0 1 13.632158 6.136378A21.750471 21.750471 0 0 1 784.134988 199.781638z m-69.672655-79.074144H780.069479v18.637816h-65.607146z m129.931117 54.058561h4.87861v18.650521h-36.958015q1.067196 6.835136 1.486452 10.976873c0.279504 2.744218 0.43196 4.281489 0.43196 4.599107l-16.782928 1.181538q-0.863921-9.452308-2.121687-16.643176t-3.608139-15.703027a83.533499 83.533499 0 0 0-6.352358-16.287444l14.661241-9.210918a92.083772 92.083772 0 0 1 4.776973 11.218263c1.3467 3.811414 2.540943 7.622829 3.506501 11.218263h19.323871v-12.704715c0-0.470074-0.101638-1.918412-0.317618-4.357717s-0.584417-5.704417-1.130719-9.80804-1.270471-8.8933-2.286849-14.508784-2.286849-11.764566-3.938462-18.536179l-10.837121 26.679901-15.245658-7.78799 18.256675-44.618958q-4.256079-11.815385-10.087543-24.316824a278.538164 278.538164 0 0 0-13.479702-25.269677l13.975186-10.379752q5.526551 9.680993 10.163771 19.057072t8.499454 18.294789l15.105906-36.589578 15.080496 7.546601-21.254987 52.30531q4.87861 14.877221 7.762581 27.747097t4.256079 22.436526q1.397519 9.56665 1.804069 15.245657c0.292208 3.811414 0.43196 5.907692 0.431961 6.352357z m75.809032-117.56943l-21.229578-12.272754 7.622829-16.516129 48.277915 27.950372-7.851513 16.516129-9.985906-5.920397v89.27603h-39.346501v-18.637816h22.512754z m157.538462 147.311167v-63.02809a21.80129 21.80129 0 0 0-5.526551-14.991563 17.303821 17.303821 0 0 0-13.441588-6.263424h-30.491316v-10.849827h56.510571v-18.650521h-28.039305l28.255285-52.889727-14.22928-9.439603-31.876129 59.254789 4.66263 3.074541h-15.245657V57.488834h-16.782928v62.570719h-10.367048q-1.905707-4.726154-5.183523-11.815384t-8.156427-15.334591a203.275434 203.275434 0 0 0-11.56129-17.35464 153.81598 153.81598 0 0 0-15.245658-17.583325l-11.256377 13.975186a141.276427 141.276427 0 0 1 20.607047 25.612705 205.511464 205.511464 0 0 1 12.310869 22.550868h-27.18809v18.599702h55.976973v10.849827h-49.20536v84.283077z m-98.766452-18.650521v-13.454293h32.49866v13.454293z m32.49866-47.007445v14.902631h-32.435137v-14.877221z m49.548387 47.007445h-32.701935v-13.454293h32.701935z m-2.324963-47.007445c1.549975 0 2.324963 0.863921 2.324963 2.604467v12.272754h-32.701935v-14.877221z m-121.469776 56.307296h-39.537072v-18.650521h39.537072z"  horiz-adv-x="1270" />

    
    <glyph glyph-name="huaban5" unicode="&#58929;" d="M0 896h2048a256 256 0 0 0 256-256v-768H51.2a51.2 51.2 0 0 0-51.2 51.2V896z"  horiz-adv-x="2304" />

    
    <glyph glyph-name="arrow-l" unicode="&#58946;" d="M253.952 347.818667l358.4-358.4a51.2 51.2 0 0 1 72.36266701 72.362666L362.49600001 384l322.218667 322.218667a50.858667 50.858667 0 0 1-1e-8 72.362666 51.2 51.2 0 0 1-72.362667 0l-358.4-358.4a50.858667 50.858667 0 0 1 0-72.362666z"  horiz-adv-x="1024" />

    
    <glyph glyph-name="huaban6" unicode="&#58930;" d="M443.733333 116.736l-252.928 253.269333 96.256 96.256L443.733333 309.930667l293.205334 292.864 96.256-96.256L443.733333 116.736z"  horiz-adv-x="1024" />

    
    <glyph glyph-name="cross" unicode="&#58931;" d="M853.333333 148.05333299999995L747.946667 42.66666699999996 512 278.613333 276.053333 42.66666699999996 170.666667 148.05333299999995 406.613333 384 170.666667 619.9466669999999 276.053333 725.333333 512 489.386667 747.946667 725.333333 853.333333 619.9466669999999 617.386667 384 853.333333 148.05333299999995z"  horiz-adv-x="1024" />

    
    <glyph glyph-name="search" unicode="&#58932;" d="M923.648 44.71466699999996l-176.128 176.128a359.424 359.424 0 1 1-72.362667-72.362667l176.128-176.128zM460.8 179.20000000000005a256 256 0 1 0 256 256 256 256 0 0 0-256-256z"  horiz-adv-x="1024" />

    
    <glyph glyph-name="close" unicode="&#58933;" d="M512 782.222222a398.222222 398.222222 0 1 1 398.222222-398.222222A398.222222 398.222222 0 0 1 512 782.222222z m195.128889-533.048889l-60.302222-60.302222L512 323.69777799999997l-134.826667-134.826667-60.302222 60.302222L451.697778 384l-134.826667 134.826667 60.302222 60.302222L512 444.302222l134.826667 134.826667 60.302222-60.302222L572.302222 384z"  horiz-adv-x="1024" />

    
    <glyph glyph-name="delete" unicode="&#58934;" d="M658.285714 774.095238H365.714286a24.380952 24.380952 0 0 1 0-48.761905h292.571428a24.380952 24.380952 0 0 1 0 48.761905zM853.333333 627.809524H170.666667a24.380952 24.380952 0 0 1 0-48.761905h48.761904v-487.619048a97.52381 97.52381 0 0 1 97.52381-97.523809h390.095238a97.52381 97.52381 0 0 1 97.52381 97.523809V579.0476189999999h48.761904a24.380952 24.380952 0 0 1 0 48.761905zM316.952381 42.66666699999996a48.761905 48.761905 0 0 0-48.761905 48.761904V579.0476189999999h487.619048v-487.619048a48.761905 48.761905 0 0 0-48.761905-48.761904zM438.857143 457.142857a24.380952 24.380952 0 0 1-24.380953-24.380952v-243.809524a24.380952 24.380952 0 0 1 48.761905 0V432.761905a24.380952 24.380952 0 0 1-24.380952 24.380952zM585.142857 457.142857a24.380952 24.380952 0 0 1-24.380952-24.380952v-243.809524a24.380952 24.380952 0 0 1 48.761905 0V432.761905a24.380952 24.380952 0 0 1-24.380953 24.380952z"  horiz-adv-x="1024" />

    
    <glyph glyph-name="like" unicode="&#58935;" d="M545.848889 740.124444c24.746667-3.982222 26.168889-16.213333 27.022222-24.746666a661.333333 661.333333 0 0 0-12.231111-170.666667 77.368889 77.368889 0 0 1 75.946667-91.875555h82.204444a56.888889 56.888889 0 0 0 35.84-12.231112c73.955556-59.164444 95.288889-126.008889 63.431111-199.111111-15.928889-36.408889-28.444444-67.128889-37.831111-94.151111a471.608889 471.608889 0 0 0-39.253333-87.04 91.022222 91.022222 0 0 0-69.404445-48.071111l-388.835555-1.991111A87.04 87.04 0 0 0 199.111111 99.55555600000002v234.666666c0 66.275556 71.395556 89.6 102.684445 96.711111 26.737778 5.688889 180.906667 48.355556 244.906666 309.191111m-18.204444 56.888889a183.182222 183.182222 0 0 1-28.444445-1.991111c-53.475556-286.151111-211.057778-309.475556-211.057777-309.475555C208.497778 469.333333 142.222222 418.417778 142.222222 334.222222V99.55555600000002a143.644444 143.644444 0 0 1 142.222222-145.92l389.12 1.991111a142.222222 142.222222 0 0 1 116.622223 73.671111c28.444444 43.804444 42.666667 100.977778 81.635555 189.44 56.888889 130.56-28.444444 223.573333-79.644444 265.386666a113.777778 113.777778 0 0 1-71.68 24.746667h-83.911111a20.48 20.48 0 0 0-20.195556 24.177778 693.475556 693.475556 0 0 1 13.084445 187.733333c-6.826667 66.844444-65.706667 77.084444-101.831112 77.084445z"  horiz-adv-x="1024" />

    
    <glyph glyph-name="unfold" unicode="&#58936;" d="M428.088889-58.31111099999998H113.777778a42.666667 42.666667 0 0 0-42.666667 42.666667V298.66666699999996a42.666667 42.666667 0 0 0 85.333333 0v-271.644445h271.644445a42.666667 42.666667 0 1 0 0-85.333333zM113.777778-58.31111099999998a42.951111 42.951111 0 0 0-30.151111 12.515555 42.382222 42.382222 0 0 0 0 60.302223L398.222222 328.817778a42.666667 42.666667 0 1 0 60.302222-60.302222l-312.888888-314.311112a42.951111 42.951111 0 0 0-31.857778-12.515555zM910.222222 425.244444a42.666667 42.666667 0 0 0-42.666666 42.666667V739.555556H597.333333a42.666667 42.666667 0 0 0 0 85.333333h312.888889A42.666667 42.666667 0 0 0 952.888889 782.222222v-314.311111a42.666667 42.666667 0 0 0-42.666667-42.666667zM597.333333 425.244444a42.951111 42.951111 0 0 0-30.151111 12.515556 42.382222 42.382222 0 0 0 0 60.302222l314.311111 312.888889a42.666667 42.666667 0 0 0 60.302223-60.302222L625.777778 437.76a42.951111 42.951111 0 0 0-28.444445-12.515556z"  horiz-adv-x="1024" />

    
    <glyph glyph-name="fold" unicode="&#58937;" d="M428.088889-58.31111099999998a42.666667 42.666667 0 0 0-42.666667 42.666667V256H113.777778a42.666667 42.666667 0 0 0 0 85.333333h314.311111a42.666667 42.666667 0 0 0 42.666667-42.666666v-312.888889a42.666667 42.666667 0 0 0-42.666667-44.088889zM113.777778-58.31111099999998a42.951111 42.951111 0 0 0-30.151111 12.515555 42.382222 42.382222 0 0 0 0 60.302223L398.222222 328.817778a42.666667 42.666667 0 1 0 60.302222-60.302222l-312.888888-314.311112a42.951111 42.951111 0 0 0-31.857778-12.515555zM910.222222 425.244444H597.333333a42.666667 42.666667 0 0 0-42.666666 42.666667V782.222222a42.666667 42.666667 0 0 0 85.333333 0v-271.644444H910.222222a42.666667 42.666667 0 0 0 0-85.333334zM597.333333 425.244444a42.951111 42.951111 0 0 0-30.151111 12.515556 42.382222 42.382222 0 0 0 0 60.302222l314.311111 312.888889a42.666667 42.666667 0 0 0 60.302223-60.302222L625.777778 437.76a42.951111 42.951111 0 0 0-28.444445-12.515556z"  horiz-adv-x="1024" />

    
    <glyph glyph-name="liked" unicode="&#58939;" d="M668.444444-44.088888999999995l-389.12-1.991111a143.928889 143.928889 0 0 0-142.222222 145.92v234.382222c0 85.333333 67.128889 134.257778 147.342222 152.462222 0 0 157.582222 23.324444 211.057778 309.475556 0 0 119.751111 21.617778 129.706667-75.093333a693.475556 693.475556 0 0 0-13.084445-187.733334 20.48 20.48 0 0 1 20.195556-24.177777h82.488889a113.777778 113.777778 0 0 0 71.395555-24.746667c52.053333-41.813333 137.102222-134.826667 79.928889-265.386667-38.968889-88.462222-53.191111-145.635556-81.635555-189.44a143.928889 143.928889 0 0 0-116.053334-73.671111z"  horiz-adv-x="1024" />

    
    <glyph glyph-name="square" unicode="&#58886;" d="M64 832h896v-896H64z"  horiz-adv-x="1024" />

    
    <glyph glyph-name="lock" unicode="&#59144;" d="M216.615385 521.846154h78.76923c11.815385 0 19.692308 5.907692 19.692308 17.723077V541.538462c0 112.246154 96.492308 204.8 210.707692 196.923076 104.369231-7.876923 183.138462-98.461538 183.138462-204.8v5.907693c0-11.815385 7.876923-17.723077 19.692308-17.723077h78.76923c11.815385 0 19.692308 5.907692 19.692308 17.723077V541.538462c0 179.2-149.661538 322.953846-330.830769 315.076923-167.384615-7.876923-295.384615-149.661538-299.323077-317.046154 1.969231-9.846154 9.846154-17.723077 19.692308-17.723077z m-19.692308 17.723077v-7.876923 7.876923zM905.846154 364.307692c0 43.323077-35.446154 78.769231-78.769231 78.769231H196.923077c-43.323077 0-78.769231-35.446154-78.769231-78.769231v-374.153846c0-43.323077 35.446154-78.769231 78.769231-78.769231h630.153846c43.323077 0 78.769231 35.446154 78.769231 78.769231V364.307692zM602.584615 55.138462c3.938462-11.815385-5.907692-25.6-19.692307-25.6h-143.753846c-13.784615 0-21.661538 11.815385-19.692308 25.6l35.446154 118.153846c-29.538462 19.692308-47.261538 55.138462-41.353846 94.523077 7.876923 37.415385 37.415385 66.953846 76.8 74.830769 63.015385 11.815385 118.153846-33.476923 118.153846-92.553846 0-31.507692-15.753846-61.046154-41.353846-76.8l35.446153-118.153846z"  horiz-adv-x="1024" />

    
    <glyph glyph-name="micphone" unicode="&#58944;" d="M559.407407 194.37036999999998a151.703704 151.703704 0 0 1 151.703704 151.703704V611.555556a151.703704 151.703704 0 0 1-151.703704 151.703703h-94.814814a151.703704 151.703704 0 0 1-151.703704-151.703703v-265.481482a151.703704 151.703704 0 0 1 151.703704-151.703704h18.962963v-132.74074H379.259259a28.444444 28.444444 0 0 1 0-56.888889h265.481482a28.444444 28.444444 0 0 1 0 56.888889h-104.296297v132.74074z m-94.814814 56.888889a94.814815 94.814815 0 0 0-94.814815 94.814815V611.555556a94.814815 94.814815 0 0 0 94.814815 94.814814h94.814814a94.814815 94.814815 0 0 0 94.814815-94.814814v-265.481482a94.814815 94.814815 0 0 0-94.814815-94.814815zM455.111111 516.7407410000001h113.777778a28.444444 28.444444 0 0 1 0 56.888889h-113.777778a28.444444 28.444444 0 0 1 0-56.888889zM597.333333 393.481481A28.444444 28.444444 0 0 1 568.888889 421.925926h-113.777778a28.444444 28.444444 0 0 1 0-56.888889h113.777778a28.444444 28.444444 0 0 1 28.444444 28.444444z"  horiz-adv-x="1024" />

    
    <glyph glyph-name="video" unicode="&#58948;" d="M758.518519 782.222222H265.481481a151.703704 151.703704 0 0 1-151.703703-151.703703v-493.037038a151.703704 151.703704 0 0 1 151.703703-151.703703h493.037038a151.703704 151.703704 0 0 1 151.703703 151.703703V630.518519a151.703704 151.703704 0 0 1-151.703703 151.703703z m94.814814-644.740741a94.814815 94.814815 0 0 0-94.814814-94.814814H265.481481a94.814815 94.814815 0 0 0-94.814814 94.814814V535.703704h682.666666zM170.666667 592.5925930000001v37.925926a94.814815 94.814815 0 0 0 94.814814 94.814814h493.037038a94.814815 94.814815 0 0 0 94.814814-94.814814v-37.925926zM424.96 164.21925899999997a56.888889 56.888889 0 0 1 28.444444-7.585185 56.888889 56.888889 0 0 1 28.444445 7.585185l164.02963 94.814815a56.888889 56.888889 0 0 1 0 98.417778l-164.02963 94.814815a56.888889 56.888889 0 0 1-28.444445 7.585185 56.888889 56.888889 0 0 1-28.444444-7.585185 56.888889 56.888889 0 0 1-28.444444-49.303704v-189.62963a56.888889 56.888889 0 0 1 28.444444-49.114074zM453.404444 402.962963l164.02963-94.814815-164.02963-94.814815z"  horiz-adv-x="1024" />

    
    <glyph glyph-name="music" unicode="&#58949;" d="M322.37037 706.37037v-460.041481A132.740741 132.740741 0 1 1 379.259259 137.48148100000003V503.656296l436.148148 45.131852v-246.518518A132.740741 132.740741 0 1 1 872.296296 194.37036999999998V763.2592589999999z m-75.851851-644.74074a75.851852 75.851852 0 1 0 75.851851 75.851851 75.851852 75.851852 0 0 0-75.851851-75.851851z m493.037037 56.888889a75.851852 75.851852 0 1 0 75.851851 75.851851 75.851852 75.851852 0 0 0-75.851851-75.851851z m75.851851 487.158518l-436.148148-45.131852v94.814815l436.148148 45.131852z"  horiz-adv-x="1024" />

    
    <glyph glyph-name="photo" unicode="&#58950;" d="M758.518519 782.222222H265.481481a151.703704 151.703704 0 0 1-151.703703-151.703703v-493.037038a151.703704 151.703704 0 0 1 151.703703-151.703703h493.037038a151.703704 151.703704 0 0 1 151.703703 151.703703V630.518519a151.703704 151.703704 0 0 1-151.703703 151.703703z m94.814814-644.740741a94.814815 94.814815 0 0 0-94.814814-94.814814H265.481481a94.814815 94.814815 0 0 0-94.814814 94.814814V630.518519a94.814815 94.814815 0 0 0 94.814814 94.814814h493.037038a94.814815 94.814815 0 0 0 94.814814-94.814814zM712.248889 318.76740700000005a28.254815 28.254815 0 0 1-40.201482 0L625.777778 272.49777800000004l-169.528889 169.528889a28.254815 28.254815 0 0 1-40.201482 0l-189.629629-189.62963a28.444444 28.444444 0 0 1 40.201481-40.201481L436.148148 381.72444399999995l169.528889-169.528888a28.254815 28.254815 0 0 1 40.201482 0l46.269629 46.269629 46.26963-46.269629a28.444444 28.444444 0 0 1 40.201481 0 28.254815 28.254815 0 0 1 0 40.201481zM682.666667 516.7407410000001m-56.888889 0a56.888889 56.888889 0 1 1 113.777778 0 56.888889 56.888889 0 1 1-113.777778 0Z"  horiz-adv-x="1024" />

    
    <glyph glyph-name="send-i" unicode="&#58951;" d="M220.728889 455.111111l175.028148-121.362963 152.651852 88.557037-85.712593-155.496296 118.328889-171.994074 208.782222 568.888889-569.078518-208.592593z"  horiz-adv-x="1024" />

    
    <glyph glyph-name="pen" unicode="&#58952;" d="M887.466667 687.445333L814.762667 759.466667a139.605333 139.605333 0 0 1-192.853334 0L211.626667 349.866667c-40.277333-39.936-160.085333-273.066667-96.597334-337.92l23.893334-23.893334a77.824 77.824 0 0 1 56.661333-18.432c93.866667 0 249.514667 82.944 281.258667 114.688l409.6 409.6a136.533333 136.533333 0 0 1 0 192.853334zM428.714667 132.43733299999997c-36.522667-36.522667-208.213333-107.861333-242.688-95.232l-21.162667 20.48c-14.336 34.133333 58.026667 206.848 94.890667 243.712l313.685333 313.685334 168.96-168.96z m409.6 409.6l-48.128-48.128-170.666667 168.618667 50.517333 49.152a70.314667 70.314667 0 0 0 96.597334 0l72.362666-72.362667a68.266667 68.266667 0 0 0 0-96.597333z"  horiz-adv-x="1024" />

    
    <glyph glyph-name="point" unicode="&#58938;" d="M490.666667 553.173333a86.826667 86.826667 0 0 0 96 64 80.64 80.64 0 0 0 58.24-39.04 120.533333 120.533333 0 0 0 12.16-71.68c22.826667 51.626667 52.48 73.6 91.093333 68.906667 44.373333-5.333333 66.986667-30.933333 77.013333-86.826667a250.24 250.24 0 0 0 42.666667 21.333334 82.986667 82.986667 0 0 0 100.053333-62.933334 554.666667 554.666667 0 0 0 17.706667-91.946666 757.973333 757.973333 0 0 0-99.626667-470.4 19.626667 19.626667 0 0 0-19.84-11.946667H414.08a17.493333 17.493333 0 0 0-18.133333 10.88A674.346667 674.346667 0 0 1 131.413333 149.33333300000004q-26.24 15.36-53.12 29.44a85.333333 85.333333 0 0 0-39.68 112.853334A82.986667 82.986667 0 0 0 149.333333 332.79999999999995c37.76-16.213333 75.946667-32 113.92-47.786667a41.386667 41.386667 0 0 1 60.373334 41.386667V804.266667a85.333333 85.333333 0 0 0 54.613333 85.333333A83.626667 83.626667 0 0 0 490.666667 806.4v-240.853333z"  horiz-adv-x="1024" />

    
    <glyph glyph-name="article-collection" unicode="&#58942;" d="M113.777778 782.222222m18.962963 0l113.777778 0q18.962963 0 18.962962-18.962963l0-796.444444q0-18.962963-18.962962-18.962963l-113.777778 0q-18.962963 0-18.962963 18.962963l0 796.444444q0 18.962963 18.962963 18.962963ZM303.407407 649.481481m18.962963 0l113.777778 0q18.962963 0 18.962963-18.962962l0-663.703704q0-18.962963-18.962963-18.962963l-113.777778 0q-18.962963 0-18.962963 18.962963l0 663.703704q0 18.962963 18.962963 18.962962ZM493.037037 744.296296m18.962963 0l113.777778 0q18.962963 0 18.962963-18.962963l0-758.518518q0-18.962963-18.962963-18.962963l-113.777778 0q-18.962963 0-18.962963 18.962963l0 758.518518q0 18.962963 18.962963 18.962963ZM679.11342 732.021949m18.737199 2.917417l112.423196 17.504503q18.737199 2.917417 21.654617-15.819782l116.696686-749.487976q2.917417-18.737199-15.819782-21.654617l-112.423197-17.504503q-18.737199-2.917417-21.654616 15.819783l-116.696686 749.487976q-2.917417 18.737199 15.819782 21.654616ZM113.777778 782.222222m18.962963 0l113.777778 0q18.962963 0 18.962962-18.962963l0-796.444444q0-18.962963-18.962962-18.962963l-113.777778 0q-18.962963 0-18.962963 18.962963l0 796.444444q0 18.962963 18.962963 18.962963ZM303.407407 649.481481m18.962963 0l113.777778 0q18.962963 0 18.962963-18.962962l0-663.703704q0-18.962963-18.962963-18.962963l-113.777778 0q-18.962963 0-18.962963 18.962963l0 663.703704q0 18.962963 18.962963 18.962962ZM493.037037 744.296296m18.962963 0l113.777778 0q18.962963 0 18.962963-18.962963l0-758.518518q0-18.962963-18.962963-18.962963l-113.777778 0q-18.962963 0-18.962963 18.962963l0 758.518518q0 18.962963 18.962963 18.962963ZM679.11342 732.021949m18.737199 2.917417l112.423196 17.504503q18.737199 2.917417 21.654617-15.819782l116.696686-749.487976q2.917417-18.737199-15.819782-21.654617l-112.423197-17.504503q-18.737199-2.917417-21.654616 15.819783l-116.696686 749.487976q-2.917417 18.737199 15.819782 21.654616Z"  horiz-adv-x="1024" />

    
    <glyph glyph-name="upload" unicode="&#58943;" d="M727.04 271.36a10.24 10.24 0 0 1-10.24-10.24v-61.44H307.2v61.44a10.24 10.24 0 0 1-20.48 0v-71.68a10.24 10.24 0 0 1 10.24-10.24h430.08a10.24 10.24 0 0 1 10.24 10.24v71.68a10.24 10.24 0 0 1-10.24 10.24zM409.6 445.44a10.24 10.24 0 0 1 7.2704 2.9696l84.8896 84.992V322.55999999999995a10.24 10.24 0 0 1 20.48 0V533.4015999999999l84.8896-84.992a10.24 10.24 0 0 1 14.5408 0 10.24 10.24 0 0 1 0 14.5408l-102.4 102.4a10.24 10.24 0 0 1-3.3792 2.1504 10.24 10.24 0 0 1-7.7824 0 10.24 10.24 0 0 1-3.3792-2.1504l-102.4-102.4a10.24 10.24 0 0 1 0-14.5408A10.24 10.24 0 0 1 409.6 445.44z"  horiz-adv-x="1024" />

    
    <glyph glyph-name="link" unicode="&#58947;" d="M563.2 289.8944l-4.5056-4.5056-81.92-82.432a102.4 102.4 0 0 0-145.8176 144.7936l81.92 81.92a122.0608 122.0608 0 0 1-2.1504-30.72L345.4976 332.79999999999995a81.92 81.92 0 1 1 115.8144-115.3024l65.7408 65.7408 21.1968 21.0944a82.7392 82.7392 0 0 1 17.3056 25.9072 81.92 81.92 0 0 1-79.9744 113.5616 56.0128 56.0128 0 0 0 4.608 5.2224l14.336 14.4384a101.888 101.888 0 0 0 86.9376-86.9376 103.1168 103.1168 0 0 0-10.24-61.44A102.4 102.4 0 0 0 563.2 289.8944z m129.8432 275.1488a102.4 102.4 0 0 1-144.7936 0l-81.92-81.92-4.5056-4.5056a102.4 102.4 0 0 1-18.432-24.9856 103.1168 103.1168 0 0 1-10.24-61.44 101.888 101.888 0 0 1 86.9376-86.9376l14.336 14.4384a56.0128 56.0128 0 0 1 4.608 5.2224 81.92 81.92 0 0 0-79.9744 113.5616 82.7392 82.7392 0 0 0 17.3056 25.9072l21.1968 21.0944L563.2 550.5024000000001a81.92 81.92 0 1 0 115.3024-115.8144l-65.7408-65.7408a122.0608 122.0608 0 0 0-2.1504-30.72l82.432 81.92a102.4 102.4 0 0 1 0 144.896z"  horiz-adv-x="1024" />

    
    <glyph glyph-name="invite" unicode="&#58953;" d="M921.6-128H102.4a102.4 102.4 0 0 0-102.4 102.4V793.6a102.4 102.4 0 0 0 102.4 102.4h136.533333a34.133333 34.133333 0 0 0 0-68.266667H102.4a34.133333 34.133333 0 0 1-34.133333-34.133333v-819.2a34.133333 34.133333 0 0 1 34.133333-34.133333h819.2a34.133333 34.133333 0 0 1 34.133333 34.133333v136.533333a34.133333 34.133333 0 0 0 68.266667 0v-136.533333a102.4 102.4 0 0 0-102.4-102.4zM989.866667 486.4a34.133333 34.133333 0 0 0-34.133334 34.133333V827.733333h-307.2a34.133333 34.133333 0 0 0-34.133333 34.133334 34.133333 34.133333 0 0 0 34.133333 34.133333h307.2a68.266667 68.266667 0 0 0 68.266667-68.266667v-307.2a34.133333 34.133333 0 0 0-34.133333-34.133333zM512 349.866667a34.133333 34.133333 0 0 0-24.234667 58.368L955.733333 875.178667a34.133333 34.133333 0 0 0 48.128 0 34.133333 34.133333 0 0 0 0-48.469334L536.576 359.424A34.133333 34.133333 0 0 0 512 349.866667z"  horiz-adv-x="1024" />

    


  </font>
</defs>
</svg>
